<mxfile host="app.diagrams.net" modified="2024-02-05T11:29:15.879Z" agent="Mozilla/5.0 (Windows NT 10.0; Win64; x64; rv:122.0) Gecko/20100101 Firefox/122.0" etag="XHJ0F0thk0npl9tlZYlW" version="23.1.1" type="github">
  <diagram id="C5RBs43oDa-KdzZeNtuy" name="Page-1">
    <mxGraphModel dx="1050" dy="566" grid="1" gridSize="10" guides="1" tooltips="1" connect="1" arrows="1" fold="1" page="1" pageScale="1" pageWidth="827" pageHeight="1169" math="0" shadow="0">
      <root>
        <mxCell id="WIyWlLk6GJQsqaUBKTNV-0" />
        <mxCell id="WIyWlLk6GJQsqaUBKTNV-1" parent="WIyWlLk6GJQsqaUBKTNV-0" />
        <mxCell id="3fGGIHvvaYcJuYXYVN8o-9" value="" style="rounded=0;whiteSpace=wrap;html=1;dashed=1;fillColor=none;" vertex="1" parent="WIyWlLk6GJQsqaUBKTNV-1">
          <mxGeometry x="230" y="255" width="310" height="110" as="geometry" />
        </mxCell>
        <mxCell id="3fGGIHvvaYcJuYXYVN8o-8" value="" style="rounded=0;whiteSpace=wrap;html=1;dashed=1;fillColor=none;" vertex="1" parent="WIyWlLk6GJQsqaUBKTNV-1">
          <mxGeometry x="229" y="20" width="310" height="200" as="geometry" />
        </mxCell>
        <mxCell id="UXDGO51B-JHk0OsEOmkB-0" value="" style="rounded=1;whiteSpace=wrap;html=1;" parent="WIyWlLk6GJQsqaUBKTNV-1" vertex="1">
          <mxGeometry x="269" y="60" width="230" height="130" as="geometry" />
        </mxCell>
        <mxCell id="UXDGO51B-JHk0OsEOmkB-10" value="GDExtension&lt;br&gt;" style="text;html=1;strokeColor=none;fillColor=none;align=center;verticalAlign=middle;whiteSpace=wrap;rounded=0;labelBackgroundColor=default;" parent="WIyWlLk6GJQsqaUBKTNV-1" vertex="1">
          <mxGeometry x="354" y="220" width="60" height="30" as="geometry" />
        </mxCell>
        <mxCell id="UXDGO51B-JHk0OsEOmkB-11" value="ORT Bindings" style="rounded=1;whiteSpace=wrap;html=1;" parent="WIyWlLk6GJQsqaUBKTNV-1" vertex="1">
          <mxGeometry x="250" y="280" width="120" height="60" as="geometry" />
        </mxCell>
        <mxCell id="UXDGO51B-JHk0OsEOmkB-20" value="" style="endArrow=classic;html=1;rounded=0;" parent="WIyWlLk6GJQsqaUBKTNV-1" source="UXDGO51B-JHk0OsEOmkB-10" edge="1">
          <mxGeometry width="50" height="50" relative="1" as="geometry">
            <mxPoint x="380" y="340" as="sourcePoint" />
            <mxPoint x="460" y="280" as="targetPoint" />
          </mxGeometry>
        </mxCell>
        <mxCell id="UXDGO51B-JHk0OsEOmkB-21" value="" style="endArrow=classic;html=1;rounded=0;entryX=0.5;entryY=0;entryDx=0;entryDy=0;" parent="WIyWlLk6GJQsqaUBKTNV-1" source="UXDGO51B-JHk0OsEOmkB-10" target="UXDGO51B-JHk0OsEOmkB-11" edge="1">
          <mxGeometry width="50" height="50" relative="1" as="geometry">
            <mxPoint x="380" y="340" as="sourcePoint" />
            <mxPoint x="430" y="290" as="targetPoint" />
          </mxGeometry>
        </mxCell>
        <mxCell id="UXDGO51B-JHk0OsEOmkB-22" value="" style="endArrow=classic;html=1;rounded=0;" parent="WIyWlLk6GJQsqaUBKTNV-1" source="UXDGO51B-JHk0OsEOmkB-10" target="UXDGO51B-JHk0OsEOmkB-0" edge="1">
          <mxGeometry width="50" height="50" relative="1" as="geometry">
            <mxPoint x="380" y="340" as="sourcePoint" />
            <mxPoint x="430" y="290" as="targetPoint" />
          </mxGeometry>
        </mxCell>
        <mxCell id="UXDGO51B-JHk0OsEOmkB-23" value="Game Logic" style="rounded=1;whiteSpace=wrap;html=1;" parent="WIyWlLk6GJQsqaUBKTNV-1" vertex="1">
          <mxGeometry x="414" y="280" width="120" height="60" as="geometry" />
        </mxCell>
        <mxCell id="UXDGO51B-JHk0OsEOmkB-24" value="&lt;h1&gt;Godot Engine&lt;/h1&gt;&lt;div&gt;Game graphics, UI and Networking functionality&lt;/div&gt;" style="text;html=1;strokeColor=none;fillColor=none;spacing=5;spacingTop=-20;whiteSpace=wrap;overflow=hidden;rounded=0;" parent="WIyWlLk6GJQsqaUBKTNV-1" vertex="1">
          <mxGeometry x="289" y="80" width="190" height="95" as="geometry" />
        </mxCell>
        <mxCell id="UXDGO51B-JHk0OsEOmkB-25" value="" style="whiteSpace=wrap;html=1;aspect=fixed;" parent="WIyWlLk6GJQsqaUBKTNV-1" vertex="1">
          <mxGeometry x="264" y="420" width="90" height="90" as="geometry" />
        </mxCell>
        <mxCell id="UXDGO51B-JHk0OsEOmkB-28" value="" style="endArrow=classic;startArrow=classic;html=1;rounded=0;exitX=0.5;exitY=0;exitDx=0;exitDy=0;" parent="WIyWlLk6GJQsqaUBKTNV-1" source="UXDGO51B-JHk0OsEOmkB-25" target="UXDGO51B-JHk0OsEOmkB-11" edge="1">
          <mxGeometry width="50" height="50" relative="1" as="geometry">
            <mxPoint x="380" y="270" as="sourcePoint" />
            <mxPoint x="430" y="220" as="targetPoint" />
          </mxGeometry>
        </mxCell>
        <mxCell id="3fGGIHvvaYcJuYXYVN8o-5" value="&lt;div&gt;External Library&lt;/div&gt;" style="edgeLabel;html=1;align=center;verticalAlign=middle;resizable=0;points=[];" vertex="1" connectable="0" parent="UXDGO51B-JHk0OsEOmkB-28">
          <mxGeometry x="-0.2617" y="1" relative="1" as="geometry">
            <mxPoint as="offset" />
          </mxGeometry>
        </mxCell>
        <mxCell id="UXDGO51B-JHk0OsEOmkB-29" value="OnnxRuntime" style="text;html=1;strokeColor=none;fillColor=none;align=center;verticalAlign=middle;whiteSpace=wrap;rounded=0;" parent="WIyWlLk6GJQsqaUBKTNV-1" vertex="1">
          <mxGeometry x="279" y="450" width="60" height="30" as="geometry" />
        </mxCell>
        <mxCell id="3fGGIHvvaYcJuYXYVN8o-3" value="&lt;div&gt;C++&lt;/div&gt;" style="text;html=1;strokeColor=none;fillColor=none;align=center;verticalAlign=middle;whiteSpace=wrap;rounded=0;labelBackgroundColor=default;gradientColor=none;" vertex="1" parent="WIyWlLk6GJQsqaUBKTNV-1">
          <mxGeometry x="474" y="240" width="60" height="30" as="geometry" />
        </mxCell>
        <mxCell id="3fGGIHvvaYcJuYXYVN8o-11" value="GD Script" style="text;html=1;strokeColor=none;fillColor=none;align=center;verticalAlign=middle;whiteSpace=wrap;rounded=0;labelBackgroundColor=default;gradientColor=none;" vertex="1" parent="WIyWlLk6GJQsqaUBKTNV-1">
          <mxGeometry x="479" y="10" width="60" height="30" as="geometry" />
        </mxCell>
        <mxCell id="3fGGIHvvaYcJuYXYVN8o-15" value="Model file&lt;br&gt;(.onnx)" style="shape=note;whiteSpace=wrap;html=1;backgroundOutline=1;darkOpacity=0.05;" vertex="1" parent="WIyWlLk6GJQsqaUBKTNV-1">
          <mxGeometry x="450" y="415" width="64" height="100" as="geometry" />
        </mxCell>
        <mxCell id="3fGGIHvvaYcJuYXYVN8o-19" value="" style="shape=flexArrow;endArrow=classic;html=1;rounded=0;exitX=0;exitY=0.5;exitDx=0;exitDy=0;exitPerimeter=0;entryX=1;entryY=0.5;entryDx=0;entryDy=0;" edge="1" parent="WIyWlLk6GJQsqaUBKTNV-1">
          <mxGeometry width="50" height="50" relative="1" as="geometry">
            <mxPoint x="450" y="465" as="sourcePoint" />
            <mxPoint x="354" y="465" as="targetPoint" />
          </mxGeometry>
        </mxCell>
        <mxCell id="3fGGIHvvaYcJuYXYVN8o-20" value="Loads" style="edgeLabel;html=1;align=center;verticalAlign=middle;resizable=0;points=[];" vertex="1" connectable="0" parent="3fGGIHvvaYcJuYXYVN8o-19">
          <mxGeometry y="5" relative="1" as="geometry">
            <mxPoint as="offset" />
          </mxGeometry>
        </mxCell>
      </root>
    </mxGraphModel>
  </diagram>
</mxfile>
